<?xml version="1.0" encoding="UTF-8"?>
<!DOCTYPE svg PUBLIC "-//W3C//DTD SVG 1.1//EN" "http://www.w3.org/Graphics/SVG/1.1/DTD/svg11.dtd">
<!-- Creator: CorelDRAW X8 -->
<svg xmlns="http://www.w3.org/2000/svg" xml:space="preserve" width="210mm" height="297mm" version="1.1" style="shape-rendering:geometricPrecision; text-rendering:geometricPrecision; image-rendering:optimizeQuality; fill-rule:evenodd; clip-rule:evenodd"
viewBox="0 0 21000 29700"
 xmlns:xlink="http://www.w3.org/1999/xlink">
 <defs>
  <style type="text/css">
   <![CDATA[
    .str0 {stroke:#31C27C;stroke-width:0.01}
    .fil0 {fill:#31C27C}
   ]]>
  </style>
 </defs>
 <g id="Camada_x0020_1">
  <metadata id="CorelCorpID_0Corel-Layer"/>
  <g id="_674841264">
   <path class="fil0 str0" d="M12012 12014c0,0 0,1 1,1l-1 0 0 -1zm-2254 1l56 -269c35,-159 73,-310 114,-454 41,-144 85,-280 130,-406 29,-80 59,-157 89,-230 30,-72 61,-141 92,-205 32,-65 63,-125 95,-181 32,-56 64,-107 96,-153 32,-47 64,-89 94,-126l60 -67 57 -55 53 -43 48 -31 43 -22 37 -13 33 -7 30 -3 12 1 32 4 37 11 42 18 49 29c21,14 43,31 66,51 23,20 47,44 72,70 31,33 63,71 95,113 32,43 65,90 97,143 41,66 82,139 123,219 40,81 80,168 119,262 47,113 92,236 135,368 43,131 84,270 122,417 38,147 74,301 106,461l20 97c-715,-331 -1540,-330 -2254,1zm-499 757c-153,1280 -125,2688 77,3907 -120,44 -238,84 -353,120 -155,50 -305,93 -449,129 -144,37 -283,68 -415,92 -132,24 -257,42 -374,53 -89,9 -173,14 -252,16 -79,2 -152,0 -219,-5 -55,-4 -105,-10 -152,-18 -46,-8 -88,-17 -125,-28 -31,-8 -58,-18 -83,-28 -25,-10 -46,-20 -65,-31 -19,-10 -35,-21 -48,-31l-29 -24 -21 -24 -16 -24 -13 -26 -10 -30 -7 -37 -4 -45c0,-17 1,-35 2,-54l9 -64 16 -72 24 -80c15,-44 34,-90 56,-139 22,-49 48,-101 78,-154 30,-54 63,-110 101,-168 37,-57 78,-117 123,-178 44,-61 93,-123 144,-186 82,-101 173,-204 271,-309 59,-63 121,-126 185,-190 -39,-147 -66,-297 -80,-449 -1098,1028 -1546,1948 -1184,2429 362,482 1482,456 2959,-68 296,1457 818,2383 1393,2469 575,86 1126,-681 1469,-2042 -141,66 -287,122 -437,167l-12 42c-41,138 -85,269 -130,390 -29,77 -58,150 -88,219 -30,69 -61,135 -92,196 -31,61 -62,119 -93,171 -32,53 -63,102 -94,146 -31,44 -62,83 -92,118l-57 61 -54 51 -51 39 -46 29 -40 20 -36 12 -31 7 -29 2 -29 -2 -31 -6 -35 -13c-16,-6 -33,-15 -52,-26 -18,-11 -38,-24 -59,-40 -21,-16 -43,-36 -66,-58 -28,-27 -58,-58 -88,-94 -30,-36 -60,-77 -91,-122 -38,-55 -77,-118 -115,-187 -39,-69 -77,-144 -114,-225 -49,-107 -97,-224 -142,-350 -46,-126 -90,-261 -131,-404 -41,-144 -79,-295 -115,-453l-53 -251c1323,-521 2715,-1347 3785,-2246l14 12c127,109 249,218 362,326 114,108 221,215 319,320 99,105 189,208 271,309 52,63 100,125 145,186 45,61 86,121 123,178 37,58 71,114 101,168 29,53 55,105 78,154 22,49 40,95 55,139l25 80 16 72 8 64c2,19 3,37 2,54l-3 45 -7 37 -10 30 -13 26 -16 24 -22 24 -28 24c-14,10 -30,21 -48,31 -19,11 -41,21 -65,31 -25,10 -53,20 -83,28 -38,11 -80,20 -126,28 -46,8 -97,14 -151,18 -68,5 -141,7 -220,5 -79,-2 -163,-7 -252,-16 -117,-11 -242,-29 -374,-53 -131,-24 -270,-55 -415,-92 -144,-36 -294,-79 -448,-129 -126,-40 -255,-84 -386,-131 431,-295 767,-709 966,-1192 -113,85 -229,170 -347,253 -201,142 -408,281 -619,415 -212,134 -428,264 -647,388 -218,124 -440,243 -662,355 -163,82 -326,161 -489,235 466,49 938,-24 1367,-214 1658,659 2957,743 3354,216 396,-527 -180,-1573 -1486,-2699 1072,-970 1588,-1866 1383,-2398 -206,-532 -1108,-633 -2415,-271 130,89 254,188 371,295l120 -27c135,-29 264,-52 386,-69 101,-14 196,-24 286,-29 90,-6 174,-7 251,-5 62,2 120,6 172,12 54,6 102,15 146,25 35,8 68,17 97,27 29,10 54,20 77,31l49 27 38 28 27 26 21 26 6 10 13 27 11 32 7 38 3 48c0,18 -1,37 -3,58l-10 67 -19 77 -28 85c-16,46 -36,94 -61,145 -24,51 -52,105 -84,160 -32,56 -68,114 -108,174 -40,59 -83,120 -131,183 -47,63 -98,127 -153,192 -86,104 -182,210 -285,318 -104,107 -215,217 -334,327l-127 116c-67,-770 -470,-1472 -1102,-1916l-2 0 0 -2c-275,-1697 -846,-2807 -1483,-2886 -638,-78 -1238,888 -1560,2512 -1508,-502 -2594,-456 -2840,119 -246,576 384,1591 1651,2658 47,592 289,1151 687,1590 -149,-1162 -149,-2446 1,-3608 -383,423 -622,956 -682,1523l-115 -106c-119,-110 -231,-220 -334,-327 -104,-108 -199,-214 -285,-318 -55,-65 -106,-129 -154,-192 -47,-63 -91,-124 -131,-183 -39,-60 -75,-118 -107,-174 -32,-55 -61,-109 -85,-160 -24,-51 -44,-99 -61,-145l-28 -85 -18 -77 -10 -67c-2,-21 -3,-40 -3,-58l3 -48 7 -38 10 -32 13 -27 7 -10 20 -26 28 -26 37 -28 50 -27c22,-11 48,-21 77,-31 29,-10 61,-19 97,-27 44,-10 92,-19 145,-25 53,-6 111,-10 172,-12 78,-2 162,-1 252,5 89,5 185,15 286,29 121,17 250,40 385,69 135,29 276,64 422,105 141,40 287,85 436,135 59,19 209,73 362,131l127 49c161,64 324,133 489,206 165,74 331,152 497,235 166,82 332,169 497,260 166,90 330,184 492,281 162,97 321,197 478,300 156,102 310,207 459,313 148,106 293,214 432,322l89 70c-120,100 -246,199 -375,298l-42 32c-126,-98 -257,-195 -391,-291 -149,-106 -302,-210 -459,-313 -156,-102 -316,-202 -478,-299 -162,-97 -326,-191 -491,-282 -166,-90 -332,-177 -498,-260 -166,-82 -332,-161 -497,-234 -164,-74 -328,-143 -488,-206l-128 -50 -146 -54z"/>
   <path class="fil0 str0" d="M5553 11957c236,-486 118,-1070 -287,-1427 1591,-2242 4341,-3353 7043,-2845 -43,538 278,1040 786,1226 507,185 1076,10 1391,-429 2093,1189 3434,3364 3556,5768 121,2404 -994,4703 -2956,6097 -355,-421 -949,-547 -1444,-307 -495,240 -765,785 -655,1324 -2472,723 -5142,40 -6962,-1783 -1820,-1823 -2499,-4495 -1771,-6966 531,97 1063,-172 1299,-658zm-677 -1658c-579,-207 -1220,55 -1488,607 -268,553 -77,1219 443,1545 -793,2641 -71,5503 1878,7453 1949,1949 4811,2672 7452,1880 332,504 986,685 1530,421 543,-263 807,-888 617,-1462 2111,-1478 3314,-3937 3185,-6511 -128,-2573 -1569,-4901 -3817,-6162 148,-596 -177,-1208 -754,-1419 -576,-211 -1220,46 -1492,596 -2899,-560 -5857,635 -7554,3052z"/>
  </g>
 </g>
</svg>
